#define D_width 43
#define D_height 43
static unsigned char D_bits[] = {
  0x00, 0x00, 0x00, 0x00, 0x00, 0x00, 0x00, 0x00, 0x00, 0x00, 0x00, 0x00,
  0x00, 0x00, 0x00, 0x00, 0x00, 0x00, 0x00, 0x00, 0x00, 0x00, 0x00, 0x00,
  0x00, 0x00, 0x00, 0x00, 0x00, 0x00, 0x00, 0x00, 0x00, 0x00, 0x00, 0x00,
  0x00, 0x00, 0x00, 0x00, 0x00, 0x00, 0x00, 0x00, 0x00, 0x00, 0x00, 0x00,
  0x00, 0x00, 0x00, 0x00, 0x00, 0x00, 0x00, 0x00, 0x00, 0x00, 0x00, 0x00,
  0x00, 0xc0, 0xff, 0x00, 0x00, 0x00, 0x00, 0xc0, 0xff, 0x03, 0x00, 0x00,
  0x00, 0xc0, 0x81, 0x0f, 0x00, 0x00, 0x00, 0xc0, 0x01, 0x0e, 0x00, 0x00,
  0x00, 0xc0, 0x01, 0x1c, 0x00, 0x00, 0x00, 0xc0, 0x01, 0x1c, 0x00, 0x00,
  0x00, 0xc0, 0x01, 0x38, 0x00, 0x00, 0x00, 0xc0, 0x01, 0x38, 0x00, 0x00,
  0x00, 0xc0, 0x01, 0x38, 0x00, 0x00, 0x00, 0xc0, 0x01, 0x38, 0x00, 0x00,
  0x00, 0xc0, 0x01, 0x38, 0x00, 0x00, 0x00, 0xc0, 0x01, 0x38, 0x00, 0x00,
  0x00, 0xc0, 0x01, 0x38, 0x00, 0x00, 0x00, 0xc0, 0x01, 0x1c, 0x00, 0x00,
  0x00, 0xc0, 0x01, 0x1c, 0x00, 0x00, 0x00, 0xc0, 0x01, 0x0e, 0x00, 0x00,
  0x00, 0xc0, 0x81, 0x07, 0x00, 0x00, 0x00, 0xc0, 0xff, 0x03, 0x00, 0x00,
  0x00, 0xc0, 0xff, 0x00, 0x00, 0x00, 0x00, 0x00, 0x00, 0x00, 0x00, 0x00,
  0x00, 0x00, 0x00, 0x00, 0x00, 0x00, 0x00, 0x00, 0x00, 0x00, 0x00, 0x00,
  0x00, 0x00, 0x00, 0x00, 0x00, 0x00, 0x00, 0x00, 0x00, 0x00, 0x00, 0x00,
  0x00, 0x00, 0x00, 0x00, 0x00, 0x00, 0x00, 0x00, 0x00, 0x00, 0x00, 0x00,
  0x00, 0x00, 0x00, 0x00, 0x00, 0x00, 0x00, 0x00, 0x00, 0x00, 0x00, 0x00,
  0x00, 0x00, 0x00, 0x00, 0x00, 0x00, 0x00, 0x00, 0x00, 0x00, 0x00, 0x00,
  0x00, 0x00, 0x00, 0x00, 0x00, 0x00, 0x00, 0x00, 0x00, 0x00, 0x00, 0x00,
  0x00, 0x00, 0x00, 0x00, 0x00, 0x00, };
