#define H_width 43
#define H_height 43
static unsigned char H_bits[] = {
  0x00, 0x00, 0x00, 0x00, 0x00, 0x00, 0x00, 0x00, 0x00, 0x00, 0x00, 0x00,
  0x00, 0x00, 0x00, 0x00, 0x00, 0x00, 0x00, 0x00, 0x00, 0x00, 0x00, 0x00,
  0x00, 0x00, 0x00, 0x00, 0x00, 0x00, 0x00, 0x00, 0x00, 0x00, 0x00, 0x00,
  0x00, 0x00, 0x00, 0x00, 0x00, 0x00, 0x00, 0x00, 0x00, 0x00, 0x00, 0x00,
  0x00, 0x00, 0x00, 0x00, 0x00, 0x00, 0x00, 0x00, 0x00, 0x00, 0x00, 0x00,
  0x00, 0x80, 0x03, 0x1c, 0x00, 0x00, 0x00, 0x80, 0x03, 0x1c, 0x00, 0x00,
  0x00, 0x80, 0x03, 0x1c, 0x00, 0x00, 0x00, 0x80, 0x03, 0x1c, 0x00, 0x00,
  0x00, 0x80, 0x03, 0x1c, 0x00, 0x00, 0x00, 0x80, 0x03, 0x1c, 0x00, 0x00,
  0x00, 0x80, 0x03, 0x1c, 0x00, 0x00, 0x00, 0x80, 0x03, 0x1c, 0x00, 0x00,
  0x00, 0x80, 0xff, 0x1f, 0x00, 0x00, 0x00, 0x80, 0xff, 0x1f, 0x00, 0x00,
  0x00, 0x80, 0x03, 0x1c, 0x00, 0x00, 0x00, 0x80, 0x03, 0x1c, 0x00, 0x00,
  0x00, 0x80, 0x03, 0x1c, 0x00, 0x00, 0x00, 0x80, 0x03, 0x1c, 0x00, 0x00,
  0x00, 0x80, 0x03, 0x1c, 0x00, 0x00, 0x00, 0x80, 0x03, 0x1c, 0x00, 0x00,
  0x00, 0x80, 0x03, 0x1c, 0x00, 0x00, 0x00, 0x80, 0x03, 0x1c, 0x00, 0x00,
  0x00, 0x80, 0x03, 0x1c, 0x00, 0x00, 0x00, 0x00, 0x00, 0x00, 0x00, 0x00,
  0x00, 0x00, 0x00, 0x00, 0x00, 0x00, 0x00, 0x00, 0x00, 0x00, 0x00, 0x00,
  0x00, 0x00, 0x00, 0x00, 0x00, 0x00, 0x00, 0x00, 0x00, 0x00, 0x00, 0x00,
  0x00, 0x00, 0x00, 0x00, 0x00, 0x00, 0x00, 0x00, 0x00, 0x00, 0x00, 0x00,
  0x00, 0x00, 0x00, 0x00, 0x00, 0x00, 0x00, 0x00, 0x00, 0x00, 0x00, 0x00,
  0x00, 0x00, 0x00, 0x00, 0x00, 0x00, 0x00, 0x00, 0x00, 0x00, 0x00, 0x00,
  0x00, 0x00, 0x00, 0x00, 0x00, 0x00, 0x00, 0x00, 0x00, 0x00, 0x00, 0x00,
  0x00, 0x00, 0x00, 0x00, 0x00, 0x00, };
