#define Q_width 43
#define Q_height 43
static unsigned char Q_bits[] = {
  0x00, 0x00, 0x00, 0x00, 0x00, 0x00, 0x00, 0x00, 0x00, 0x00, 0x00, 0x00,
  0x00, 0x00, 0x00, 0x00, 0x00, 0x00, 0x00, 0x00, 0x00, 0x00, 0x00, 0x00,
  0x00, 0x00, 0x00, 0x00, 0x00, 0x00, 0x00, 0x00, 0x00, 0x00, 0x00, 0x00,
  0x00, 0x00, 0x00, 0x00, 0x00, 0x00, 0x00, 0x00, 0x00, 0x00, 0x00, 0x00,
  0x00, 0x00, 0x00, 0x00, 0x00, 0x00, 0x00, 0x00, 0x00, 0x00, 0x00, 0x00,
  0x00, 0x00, 0xf8, 0x01, 0x00, 0x00, 0x00, 0x00, 0xfe, 0x07, 0x00, 0x00,
  0x00, 0x00, 0x0f, 0x0f, 0x00, 0x00, 0x00, 0x80, 0x03, 0x1c, 0x00, 0x00,
  0x00, 0xc0, 0x01, 0x38, 0x00, 0x00, 0x00, 0xc0, 0x01, 0x38, 0x00, 0x00,
  0x00, 0xe0, 0x00, 0x70, 0x00, 0x00, 0x00, 0xe0, 0x00, 0x70, 0x00, 0x00,
  0x00, 0xe0, 0x00, 0x70, 0x00, 0x00, 0x00, 0xe0, 0x00, 0x70, 0x00, 0x00,
  0x00, 0xe0, 0x00, 0x70, 0x00, 0x00, 0x00, 0xe0, 0x00, 0x70, 0x00, 0x00,
  0x00, 0xe0, 0x00, 0x70, 0x00, 0x00, 0x00, 0xc0, 0x01, 0x38, 0x00, 0x00,
  0x00, 0xc0, 0x01, 0x38, 0x00, 0x00, 0x00, 0x80, 0x03, 0x1c, 0x00, 0x00,
  0x00, 0x00, 0x07, 0x1e, 0x00, 0x00, 0x00, 0x00, 0xfe, 0x07, 0x00, 0x00,
  0x00, 0x00, 0xf8, 0x07, 0x00, 0x00, 0x00, 0x00, 0x00, 0x1f, 0x00, 0x00,
  0x00, 0x08, 0x00, 0xfc, 0x01, 0x00, 0x00, 0x08, 0x00, 0xf0, 0x00, 0x00,
  0x00, 0x08, 0x00, 0xc0, 0x00, 0x00, 0x00, 0x00, 0x00, 0x00, 0x00, 0x00,
  0x00, 0x00, 0x00, 0x00, 0x00, 0x00, 0x00, 0x00, 0x00, 0x00, 0x00, 0x00,
  0x00, 0x00, 0x00, 0x00, 0x00, 0x00, 0x00, 0x00, 0x00, 0x00, 0x00, 0x00,
  0x00, 0x00, 0x00, 0x00, 0x00, 0x00, 0x00, 0x00, 0x00, 0x00, 0x00, 0x00,
  0x00, 0x00, 0x00, 0x00, 0x00, 0x00, 0x00, 0x00, 0x00, 0x00, 0x00, 0x00,
  0x00, 0x00, 0x00, 0x00, 0x00, 0x00, };
