#define R_width 43
#define R_height 43
static unsigned char R_bits[] = {
  0x00, 0x00, 0x00, 0x00, 0x00, 0x00, 0x00, 0x00, 0x00, 0x00, 0x00, 0x00,
  0x00, 0x00, 0x00, 0x00, 0x00, 0x00, 0x00, 0x00, 0x00, 0x00, 0x00, 0x00,
  0x00, 0x00, 0x00, 0x00, 0x00, 0x00, 0x00, 0x00, 0x00, 0x00, 0x00, 0x00,
  0x00, 0x00, 0x00, 0x00, 0x00, 0x00, 0x00, 0x00, 0x00, 0x00, 0x00, 0x00,
  0x00, 0x00, 0x00, 0x00, 0x00, 0x00, 0x00, 0x00, 0x00, 0x00, 0x00, 0x00,
  0x00, 0x80, 0x7f, 0x00, 0x00, 0x00, 0x00, 0x80, 0xff, 0x01, 0x00, 0x00,
  0x00, 0x80, 0xc3, 0x03, 0x00, 0x00, 0x00, 0x80, 0x83, 0x03, 0x00, 0x00,
  0x00, 0x80, 0x83, 0x03, 0x00, 0x00, 0x00, 0x80, 0x83, 0x03, 0x00, 0x00,
  0x00, 0x80, 0x83, 0x03, 0x00, 0x00, 0x00, 0x80, 0xc3, 0x01, 0x00, 0x00,
  0x00, 0x80, 0xe3, 0x00, 0x00, 0x00, 0x00, 0x80, 0x7f, 0x00, 0x00, 0x00,
  0x00, 0x80, 0x7f, 0x00, 0x00, 0x00, 0x00, 0x80, 0x73, 0x00, 0x00, 0x00,
  0x00, 0x80, 0xe3, 0x00, 0x00, 0x00, 0x00, 0x80, 0xe3, 0x01, 0x00, 0x00,
  0x00, 0x80, 0xc3, 0x01, 0x00, 0x00, 0x00, 0x80, 0xc3, 0x03, 0x00, 0x00,
  0x00, 0x80, 0x83, 0x07, 0x00, 0x00, 0x00, 0x80, 0x03, 0x07, 0x00, 0x00,
  0x00, 0x80, 0x03, 0x0f, 0x00, 0x00, 0x00, 0x00, 0x00, 0x00, 0x00, 0x00,
  0x00, 0x08, 0x00, 0x00, 0x00, 0x00, 0x00, 0x08, 0x00, 0x00, 0x00, 0x00,
  0x00, 0x08, 0x00, 0x00, 0x00, 0x00, 0x00, 0x00, 0x00, 0x00, 0x00, 0x00,
  0x00, 0x00, 0x00, 0x00, 0x00, 0x00, 0x00, 0x00, 0x00, 0x00, 0x00, 0x00,
  0x00, 0x00, 0x00, 0x00, 0x00, 0x00, 0x00, 0x00, 0x00, 0x00, 0x00, 0x00,
  0x00, 0x00, 0x00, 0x00, 0x00, 0x00, 0x00, 0x00, 0x00, 0x00, 0x00, 0x00,
  0x00, 0x00, 0x00, 0x00, 0x00, 0x00, 0x00, 0x00, 0x00, 0x00, 0x00, 0x00,
  0x00, 0x00, 0x00, 0x00, 0x00, 0x00, };
