#define dw_width 48
#define dw_height 48
static unsigned char dw_bits[] = {
  0x00, 0x00, 0x00, 0x00, 0x00, 0x00, 0x00, 0x00, 0x00, 0x00, 0x00, 0x00,
  0x00, 0x00, 0x00, 0x00, 0x00, 0x00, 0x00, 0x00, 0x00, 0x00, 0x00, 0x00,
  0x00, 0x1f, 0x00, 0xc2, 0x00, 0x00, 0x00, 0x32, 0x00, 0x82, 0x00, 0x00,
  0x00, 0x22, 0x93, 0x8e, 0x18, 0x00, 0x00, 0xa2, 0x94, 0x92, 0x14, 0x00,
  0x00, 0xa2, 0x94, 0x92, 0x0c, 0x00, 0x00, 0xb2, 0x94, 0x92, 0x04, 0x00,
  0x00, 0x1f, 0x63, 0xcf, 0x19, 0x00, 0x00, 0x00, 0x00, 0x00, 0x00, 0x00,
  0x00, 0x00, 0x00, 0x00, 0x00, 0x00, 0x00, 0x00, 0x00, 0x00, 0x00, 0x00,
  0x00, 0x00, 0x00, 0x00, 0x00, 0x00, 0x00, 0x00, 0x00, 0x00, 0x00, 0x00,
  0x00, 0x00, 0x00, 0x00, 0x00, 0x00, 0x00, 0x00, 0x00, 0x00, 0x00, 0x00,
  0x00, 0xee, 0x0e, 0x80, 0x01, 0x00, 0x00, 0x44, 0x04, 0x00, 0x01, 0x00,
  0x00, 0x4c, 0x66, 0xca, 0x01, 0x00, 0x00, 0xa8, 0x92, 0x2c, 0x01, 0x00,
  0x00, 0xa8, 0x92, 0x24, 0x01, 0x00, 0x00, 0x10, 0x91, 0x24, 0x01, 0x00,
  0x00, 0x10, 0x61, 0xce, 0x02, 0x00, 0x00, 0x00, 0x00, 0x00, 0x00, 0x00,
  0x00, 0x00, 0x00, 0x00, 0x00, 0x00, 0x00, 0x00, 0x00, 0x00, 0x00, 0x00,
  0x00, 0x00, 0x00, 0x00, 0x00, 0x00, 0x00, 0x00, 0x00, 0x00, 0x00, 0x00,
  0x00, 0x00, 0x00, 0x00, 0x00, 0x00, 0x00, 0x00, 0x00, 0x00, 0x00, 0x00,
  0x00, 0x70, 0x00, 0x00, 0x00, 0x00, 0x00, 0x48, 0x00, 0x00, 0x00, 0x00,
  0x00, 0x18, 0x66, 0xca, 0x00, 0x00, 0x00, 0x30, 0x91, 0xac, 0x00, 0x00,
  0x00, 0x40, 0x91, 0x64, 0x00, 0x00, 0x00, 0x48, 0x91, 0x24, 0x00, 0x00,
  0x00, 0x38, 0x66, 0xce, 0x00, 0x00, 0x00, 0x00, 0x00, 0x00, 0x00, 0x00,
  0x00, 0x00, 0x00, 0x00, 0x00, 0x00, 0x00, 0x00, 0x00, 0x00, 0x00, 0x00,
  0x00, 0x00, 0x00, 0x00, 0x00, 0x00, 0x00, 0x00, 0x00, 0x00, 0x00, 0x00,
  0x00, 0x00, 0x00, 0x00, 0x00, 0x00, 0x00, 0x00, 0x00, 0x00, 0x00, 0x00,
  0x00, 0x00, 0x00, 0x00, 0x00, 0x00, 0x00, 0x00, 0x00, 0x00, 0x00, 0x00,
  };
