#define tl_width 48
#define tl_height 48
static unsigned char tl_bits[] = {
  0x00, 0x00, 0x00, 0x00, 0x00, 0x00, 0x00, 0x00, 0x00, 0x00, 0x00, 0x00,
  0x00, 0x00, 0x00, 0x00, 0x00, 0x00, 0x00, 0x3e, 0x10, 0x18, 0x00, 0x00,
  0x00, 0x2a, 0x00, 0x10, 0x00, 0x00, 0x00, 0x88, 0xda, 0x11, 0x03, 0x00,
  0x00, 0x08, 0x53, 0x92, 0x02, 0x00, 0x00, 0x08, 0x51, 0x92, 0x01, 0x00,
  0x00, 0x08, 0x51, 0x92, 0x00, 0x00, 0x00, 0x9c, 0xd3, 0x39, 0x03, 0x00,
  0x00, 0x00, 0x40, 0x00, 0x00, 0x00, 0x00, 0x00, 0xc0, 0x00, 0x00, 0x00,
  0x00, 0x00, 0x00, 0x00, 0x00, 0x00, 0x00, 0x00, 0x00, 0x00, 0x00, 0x00,
  0x00, 0x00, 0x00, 0x00, 0x00, 0x00, 0x00, 0x00, 0x00, 0x00, 0x00, 0x00,
  0x00, 0x00, 0x00, 0x00, 0x00, 0x00, 0x00, 0x0e, 0x00, 0x00, 0x00, 0x00,
  0x00, 0x04, 0x10, 0x01, 0x00, 0x00, 0x00, 0x04, 0xbb, 0xb3, 0x02, 0x00,
  0x00, 0x84, 0x12, 0x29, 0x03, 0x00, 0x00, 0x84, 0x11, 0x19, 0x01, 0x00,
  0x00, 0xa4, 0x10, 0x09, 0x01, 0x00, 0x00, 0x3e, 0x63, 0xb6, 0x03, 0x00,
  0x00, 0x00, 0x00, 0x00, 0x00, 0x00, 0x00, 0x00, 0x00, 0x00, 0x00, 0x00,
  0x00, 0x00, 0x00, 0x00, 0x00, 0x00, 0x00, 0x00, 0x00, 0x00, 0x00, 0x00,
  0x00, 0x00, 0x00, 0x00, 0x00, 0x00, 0x00, 0x00, 0x00, 0x00, 0x00, 0x00,
  0x00, 0x00, 0x00, 0x00, 0x00, 0x00, 0x00, 0x70, 0x00, 0x00, 0x00, 0x00,
  0x00, 0x48, 0x00, 0x00, 0x00, 0x00, 0x00, 0x18, 0x66, 0xca, 0x00, 0x00,
  0x00, 0x30, 0x91, 0xac, 0x00, 0x00, 0x00, 0x40, 0x91, 0x64, 0x00, 0x00,
  0x00, 0x48, 0x91, 0x24, 0x00, 0x00, 0x00, 0x38, 0x66, 0xce, 0x00, 0x00,
  0x00, 0x00, 0x00, 0x00, 0x00, 0x00, 0x00, 0x00, 0x00, 0x00, 0x00, 0x00,
  0x00, 0x00, 0x00, 0x00, 0x00, 0x00, 0x00, 0x00, 0x00, 0x00, 0x00, 0x00,
  0x00, 0x00, 0x00, 0x00, 0x00, 0x00, 0x00, 0x00, 0x00, 0x00, 0x00, 0x00,
  0x00, 0x00, 0x00, 0x00, 0x00, 0x00, 0x00, 0x00, 0x00, 0x00, 0x00, 0x00,
  0x00, 0x00, 0x00, 0x00, 0x00, 0x00, 0x00, 0x00, 0x00, 0x00, 0x00, 0x00,
  };
