#define B_width 43
#define B_height 43
static unsigned char B_bits[] = {
  0x00, 0x00, 0x00, 0x00, 0x00, 0x00, 0x00, 0x00, 0x00, 0x00, 0x00, 0x00,
  0x00, 0x00, 0x00, 0x00, 0x00, 0x00, 0x00, 0x00, 0x00, 0x00, 0x00, 0x00,
  0x00, 0x00, 0x00, 0x00, 0x00, 0x00, 0x00, 0x00, 0x00, 0x00, 0x00, 0x00,
  0x00, 0x00, 0x00, 0x00, 0x00, 0x00, 0x00, 0x00, 0x00, 0x00, 0x00, 0x00,
  0x00, 0x00, 0x00, 0x00, 0x00, 0x00, 0x00, 0x00, 0x00, 0x00, 0x00, 0x00,
  0x00, 0x80, 0x3f, 0x00, 0x00, 0x00, 0x00, 0x80, 0xff, 0x00, 0x00, 0x00,
  0x00, 0x80, 0xe3, 0x01, 0x00, 0x00, 0x00, 0x80, 0xc3, 0x01, 0x00, 0x00,
  0x00, 0x80, 0xc3, 0x01, 0x00, 0x00, 0x00, 0x80, 0xc3, 0x01, 0x00, 0x00,
  0x00, 0x80, 0xe3, 0x00, 0x00, 0x00, 0x00, 0x80, 0xe3, 0x00, 0x00, 0x00,
  0x00, 0x80, 0x3f, 0x00, 0x00, 0x00, 0x00, 0x80, 0x3f, 0x00, 0x00, 0x00,
  0x00, 0x80, 0xe3, 0x00, 0x00, 0x00, 0x00, 0x80, 0xc3, 0x01, 0x00, 0x00,
  0x00, 0x80, 0x83, 0x03, 0x00, 0x00, 0x00, 0x80, 0x83, 0x03, 0x00, 0x00,
  0x00, 0x80, 0x83, 0x03, 0x00, 0x00, 0x00, 0x80, 0x83, 0x03, 0x00, 0x00,
  0x00, 0x80, 0xc3, 0x01, 0x00, 0x00, 0x00, 0x80, 0xff, 0x01, 0x00, 0x00,
  0x00, 0x80, 0x7f, 0x00, 0x00, 0x00, 0x00, 0x00, 0x00, 0x00, 0x00, 0x00,
  0x00, 0x00, 0x00, 0x00, 0x00, 0x00, 0x00, 0x00, 0x00, 0x00, 0x00, 0x00,
  0x00, 0x00, 0x00, 0x00, 0x00, 0x00, 0x00, 0x00, 0x00, 0x00, 0x00, 0x00,
  0x00, 0x00, 0x00, 0x00, 0x00, 0x00, 0x00, 0x00, 0x00, 0x00, 0x00, 0x00,
  0x00, 0x00, 0x00, 0x00, 0x00, 0x00, 0x00, 0x00, 0x00, 0x00, 0x00, 0x00,
  0x00, 0x00, 0x00, 0x00, 0x00, 0x00, 0x00, 0x00, 0x00, 0x00, 0x00, 0x00,
  0x00, 0x00, 0x00, 0x00, 0x00, 0x00, 0x00, 0x00, 0x00, 0x00, 0x00, 0x00,
  0x00, 0x00, 0x00, 0x00, 0x00, 0x00, };
