#define K_width 43
#define K_height 43
static unsigned char K_bits[] = {
  0x00, 0x00, 0x00, 0x00, 0x00, 0x00, 0x00, 0x00, 0x00, 0x00, 0x00, 0x00,
  0x00, 0x00, 0x00, 0x00, 0x00, 0x00, 0x00, 0x00, 0x00, 0x00, 0x00, 0x00,
  0x00, 0x00, 0x00, 0x00, 0x00, 0x00, 0x00, 0x00, 0x00, 0x00, 0x00, 0x00,
  0x00, 0x00, 0x00, 0x00, 0x00, 0x00, 0x00, 0x00, 0x00, 0x00, 0x00, 0x00,
  0x00, 0x00, 0x00, 0x00, 0x00, 0x00, 0x00, 0x00, 0x00, 0x00, 0x00, 0x00,
  0x00, 0xc0, 0x01, 0x07, 0x00, 0x00, 0x00, 0xc0, 0x81, 0x03, 0x00, 0x00,
  0x00, 0xc0, 0xc1, 0x01, 0x00, 0x00, 0x00, 0xc0, 0xc1, 0x00, 0x00, 0x00,
  0x00, 0xc0, 0x61, 0x00, 0x00, 0x00, 0x00, 0xc0, 0x71, 0x00, 0x00, 0x00,
  0x00, 0xc0, 0x39, 0x00, 0x00, 0x00, 0x00, 0xc0, 0x1d, 0x00, 0x00, 0x00,
  0x00, 0xc0, 0x0d, 0x00, 0x00, 0x00, 0x00, 0xc0, 0x1f, 0x00, 0x00, 0x00,
  0x00, 0xc0, 0x1d, 0x00, 0x00, 0x00, 0x00, 0xc0, 0x3d, 0x00, 0x00, 0x00,
  0x00, 0xc0, 0x79, 0x00, 0x00, 0x00, 0x00, 0xc0, 0xf1, 0x00, 0x00, 0x00,
  0x00, 0xc0, 0xe1, 0x01, 0x00, 0x00, 0x00, 0xc0, 0xc1, 0x01, 0x00, 0x00,
  0x00, 0xc0, 0xc1, 0x03, 0x00, 0x00, 0x00, 0xc0, 0x81, 0x07, 0x00, 0x00,
  0x00, 0xc0, 0x01, 0x0f, 0x00, 0x00, 0x00, 0x00, 0x00, 0x00, 0x00, 0x00,
  0x00, 0x08, 0x00, 0x00, 0x00, 0x00, 0x00, 0x08, 0x00, 0x00, 0x00, 0x00,
  0x00, 0x08, 0x00, 0x00, 0x00, 0x00, 0x00, 0x00, 0x00, 0x00, 0x00, 0x00,
  0x00, 0x00, 0x00, 0x00, 0x00, 0x00, 0x00, 0x00, 0x00, 0x00, 0x00, 0x00,
  0x00, 0x00, 0x00, 0x00, 0x00, 0x00, 0x00, 0x00, 0x00, 0x00, 0x00, 0x00,
  0x00, 0x00, 0x00, 0x00, 0x00, 0x00, 0x00, 0x00, 0x00, 0x00, 0x00, 0x00,
  0x00, 0x00, 0x00, 0x00, 0x00, 0x00, 0x00, 0x00, 0x00, 0x00, 0x00, 0x00,
  0x00, 0x00, 0x00, 0x00, 0x00, 0x00, };
