#define M_width 43
#define M_height 43
static unsigned char M_bits[] = {
  0x00, 0x00, 0x00, 0x00, 0x00, 0x00, 0x00, 0x00, 0x00, 0x00, 0x00, 0x00,
  0x00, 0x00, 0x00, 0x00, 0x00, 0x00, 0x00, 0x00, 0x00, 0x00, 0x00, 0x00,
  0x00, 0x00, 0x00, 0x00, 0x00, 0x00, 0x00, 0x00, 0x00, 0x00, 0x00, 0x00,
  0x00, 0x00, 0x00, 0x00, 0x00, 0x00, 0x00, 0x00, 0x00, 0x00, 0x00, 0x00,
  0x00, 0x00, 0x00, 0x00, 0x00, 0x00, 0x00, 0x00, 0x00, 0x00, 0x00, 0x00,
  0x00, 0xc0, 0x03, 0xf0, 0x00, 0x00, 0x00, 0xc0, 0x03, 0xf0, 0x00, 0x00,
  0x00, 0xc0, 0x07, 0xf8, 0x00, 0x00, 0x00, 0xc0, 0x07, 0xf8, 0x00, 0x00,
  0x00, 0xc0, 0x07, 0xf8, 0x00, 0x00, 0x00, 0xc0, 0x0e, 0xec, 0x00, 0x00,
  0x00, 0xc0, 0x0e, 0xec, 0x00, 0x00, 0x00, 0xc0, 0x1e, 0xec, 0x00, 0x00,
  0x00, 0xc0, 0x1c, 0xe6, 0x00, 0x00, 0x00, 0xc0, 0x1c, 0xe6, 0x00, 0x00,
  0x00, 0xc0, 0x3c, 0xe7, 0x00, 0x00, 0x00, 0xc0, 0x38, 0xe3, 0x00, 0x00,
  0x00, 0xc0, 0x38, 0xe3, 0x00, 0x00, 0x00, 0xc0, 0xf0, 0xe1, 0x00, 0x00,
  0x00, 0xc0, 0xf0, 0xe1, 0x00, 0x00, 0x00, 0xc0, 0xf0, 0xe1, 0x00, 0x00,
  0x00, 0xc0, 0xe0, 0xe0, 0x00, 0x00, 0x00, 0xc0, 0xe0, 0xe0, 0x00, 0x00,
  0x00, 0xc0, 0x00, 0xe0, 0x00, 0x00, 0x00, 0x00, 0x00, 0x00, 0x00, 0x00,
  0x00, 0x08, 0x00, 0x00, 0x00, 0x00, 0x00, 0x08, 0x00, 0x00, 0x00, 0x00,
  0x00, 0x08, 0x00, 0x00, 0x00, 0x00, 0x00, 0x00, 0x00, 0x00, 0x00, 0x00,
  0x00, 0x00, 0x00, 0x00, 0x00, 0x00, 0x00, 0x00, 0x00, 0x00, 0x00, 0x00,
  0x00, 0x00, 0x00, 0x00, 0x00, 0x00, 0x00, 0x00, 0x00, 0x00, 0x00, 0x00,
  0x00, 0x00, 0x00, 0x00, 0x00, 0x00, 0x00, 0x00, 0x00, 0x00, 0x00, 0x00,
  0x00, 0x00, 0x00, 0x00, 0x00, 0x00, 0x00, 0x00, 0x00, 0x00, 0x00, 0x00,
  0x00, 0x00, 0x00, 0x00, 0x00, 0x00, };
