#define TL_width 43
#define TL_height 43
static unsigned char TL_bits[] = {
  0x00, 0x00, 0x00, 0x00, 0x00, 0x00, 0x00, 0x00, 0x00, 0x00, 0x00, 0x00,
  0x00, 0x00, 0x00, 0x00, 0x00, 0x00, 0x00, 0x00, 0x00, 0x00, 0x00, 0x00,
  0xe0, 0x0f, 0x04, 0x10, 0x00, 0x00, 0x00, 0x01, 0x00, 0x10, 0x00, 0x00,
  0x00, 0xa1, 0xe4, 0x91, 0x03, 0x00, 0x00, 0x61, 0x24, 0x52, 0x04, 0x00,
  0x00, 0x21, 0x24, 0xd2, 0x07, 0x00, 0x00, 0x21, 0x24, 0x52, 0x00, 0x00,
  0x00, 0x21, 0x24, 0xd3, 0x00, 0x00, 0x00, 0x21, 0xe4, 0x91, 0x07, 0x00,
  0x00, 0x00, 0x20, 0x00, 0x00, 0x00, 0x00, 0x00, 0x20, 0x00, 0x00, 0x00,
  0x00, 0x00, 0x00, 0x00, 0x00, 0x00, 0x00, 0x00, 0x00, 0x00, 0x00, 0x00,
  0x00, 0x00, 0x00, 0x00, 0x00, 0x00, 0x00, 0x00, 0x00, 0x00, 0x00, 0x00,
  0x00, 0x00, 0x00, 0x00, 0x00, 0x00, 0x80, 0x00, 0x00, 0x00, 0x00, 0x00,
  0x80, 0x00, 0x88, 0x00, 0x00, 0x00, 0x80, 0xe0, 0xfc, 0x3b, 0x0a, 0x00,
  0x80, 0x10, 0x89, 0x44, 0x06, 0x00, 0x80, 0xf0, 0x89, 0x7c, 0x02, 0x00,
  0x80, 0x10, 0x88, 0x04, 0x02, 0x00, 0x80, 0x30, 0x88, 0x0c, 0x02, 0x00,
  0x80, 0xef, 0x31, 0x7b, 0x02, 0x00, 0x00, 0x00, 0x00, 0x00, 0x00, 0x00,
  0x00, 0x00, 0x00, 0x00, 0x00, 0x00, 0x00, 0x00, 0x00, 0x00, 0x00, 0x00,
  0x00, 0x00, 0x00, 0x00, 0x00, 0x00, 0x00, 0x00, 0x00, 0x00, 0x00, 0x00,
  0x00, 0x00, 0x00, 0x00, 0x00, 0x00, 0x00, 0x07, 0x00, 0x00, 0x00, 0x00,
  0x80, 0x00, 0x00, 0x00, 0x00, 0x00, 0x80, 0x80, 0xf3, 0x28, 0x07, 0x00,
  0x00, 0xc3, 0x98, 0x99, 0x08, 0x00, 0x00, 0x44, 0x08, 0x89, 0x0f, 0x00,
  0x00, 0x48, 0x08, 0x89, 0x00, 0x00, 0x80, 0xc8, 0x98, 0x89, 0x01, 0x00,
  0x80, 0x87, 0xf3, 0x08, 0x0f, 0x00, 0x00, 0x00, 0x00, 0x00, 0x00, 0x00,
  0x00, 0x00, 0x00, 0x00, 0x00, 0x00, };
