#define W_width 43
#define W_height 43
static unsigned char W_bits[] = {
  0x00, 0x00, 0x00, 0x00, 0x00, 0x00, 0x00, 0x00, 0x00, 0x00, 0x00, 0x00,
  0x00, 0x00, 0x00, 0x00, 0x00, 0x00, 0x00, 0x00, 0x00, 0x00, 0x00, 0x00,
  0x00, 0x00, 0x00, 0x00, 0x00, 0x00, 0x00, 0x00, 0x00, 0x00, 0x00, 0x00,
  0x00, 0x00, 0x00, 0x00, 0x00, 0x00, 0x00, 0x00, 0x00, 0x00, 0x00, 0x00,
  0x00, 0x00, 0x00, 0x00, 0x00, 0x00, 0x00, 0x00, 0x00, 0x00, 0x00, 0x00,
  0x00, 0x70, 0xc0, 0x01, 0x03, 0x00, 0x00, 0x70, 0xe0, 0x81, 0x03, 0x00,
  0x00, 0x70, 0xe0, 0x81, 0x01, 0x00, 0x00, 0xe0, 0xe0, 0x81, 0x01, 0x00,
  0x00, 0xe0, 0xe0, 0x83, 0x01, 0x00, 0x00, 0xe0, 0xe0, 0xc3, 0x00, 0x00,
  0x00, 0xe0, 0xb0, 0xc3, 0x00, 0x00, 0x00, 0xc0, 0xb1, 0xc3, 0x00, 0x00,
  0x00, 0xc0, 0xb1, 0xc7, 0x00, 0x00, 0x00, 0xc0, 0x31, 0x67, 0x00, 0x00,
  0x00, 0xc0, 0x19, 0x67, 0x00, 0x00, 0x00, 0x80, 0x1b, 0x67, 0x00, 0x00,
  0x00, 0x80, 0x1b, 0x77, 0x00, 0x00, 0x00, 0x80, 0x1b, 0x3e, 0x00, 0x00,
  0x00, 0x80, 0x1f, 0x3e, 0x00, 0x00, 0x00, 0x00, 0x0f, 0x3e, 0x00, 0x00,
  0x00, 0x00, 0x0f, 0x1e, 0x00, 0x00, 0x00, 0x00, 0x0f, 0x1c, 0x00, 0x00,
  0x00, 0x00, 0x0f, 0x1c, 0x00, 0x00, 0x00, 0x00, 0x00, 0x00, 0x00, 0x00,
  0x00, 0x08, 0x00, 0x00, 0x00, 0x00, 0x00, 0x08, 0x00, 0x00, 0x00, 0x00,
  0x00, 0x08, 0x00, 0x00, 0x00, 0x00, 0x00, 0x00, 0x00, 0x00, 0x00, 0x00,
  0x00, 0x00, 0x00, 0x00, 0x00, 0x00, 0x00, 0x00, 0x00, 0x00, 0x00, 0x00,
  0x00, 0x00, 0x00, 0x00, 0x00, 0x00, 0x00, 0x00, 0x00, 0x00, 0x00, 0x00,
  0x00, 0x00, 0x00, 0x00, 0x00, 0x00, 0x00, 0x00, 0x00, 0x00, 0x00, 0x00,
  0x00, 0x00, 0x00, 0x00, 0x00, 0x00, 0x00, 0x00, 0x00, 0x00, 0x00, 0x00,
  0x00, 0x00, 0x00, 0x00, 0x00, 0x00, };
